<mxfile host="app.diagrams.net" modified="2020-09-27T04:13:56.876Z" agent="5.0 (X11; Linux x86_64) AppleWebKit/537.36 (KHTML, like Gecko) Chrome/85.0.4183.83 Safari/537.36" etag="fEMo5-FwYJl9SB2VwynU" version="13.7.5" type="github">
  <diagram id="qrpQ5_xqGMl8ve-vun2y" name="Page-1">
    <mxGraphModel dx="868" dy="401" grid="1" gridSize="10" guides="1" tooltips="1" connect="1" arrows="1" fold="1" page="1" pageScale="1" pageWidth="827" pageHeight="1169" math="0" shadow="0">
      <root>
        <mxCell id="0" />
        <mxCell id="1" parent="0" />
        <mxCell id="UoCwUCxMzMDlwAczhJUl-1" value="" style="endArrow=block;endSize=10;endFill=0;shadow=0;strokeWidth=1;rounded=0;edgeStyle=elbowEdgeStyle;elbow=vertical;" edge="1" parent="1" target="UoCwUCxMzMDlwAczhJUl-15">
          <mxGeometry width="160" relative="1" as="geometry">
            <mxPoint x="346" y="336" as="sourcePoint" />
            <mxPoint x="246" y="203" as="targetPoint" />
          </mxGeometry>
        </mxCell>
        <mxCell id="UoCwUCxMzMDlwAczhJUl-2" style="edgeStyle=orthogonalEdgeStyle;rounded=0;orthogonalLoop=1;jettySize=auto;html=1;exitX=0.75;exitY=0;exitDx=0;exitDy=0;entryX=0.688;entryY=-0.057;entryDx=0;entryDy=0;entryPerimeter=0;" edge="1" parent="1" source="UoCwUCxMzMDlwAczhJUl-23" target="UoCwUCxMzMDlwAczhJUl-23">
          <mxGeometry relative="1" as="geometry" />
        </mxCell>
        <mxCell id="UoCwUCxMzMDlwAczhJUl-3" style="edgeStyle=orthogonalEdgeStyle;rounded=0;orthogonalLoop=1;jettySize=auto;html=1;exitX=0.75;exitY=0;exitDx=0;exitDy=0;entryX=0.688;entryY=-0.057;entryDx=0;entryDy=0;entryPerimeter=0;" edge="1" parent="1" source="UoCwUCxMzMDlwAczhJUl-20" target="UoCwUCxMzMDlwAczhJUl-20">
          <mxGeometry relative="1" as="geometry" />
        </mxCell>
        <mxCell id="UoCwUCxMzMDlwAczhJUl-4" value="" style="endArrow=classic;html=1;entryX=0.5;entryY=1;entryDx=0;entryDy=0;exitX=0.5;exitY=0;exitDx=0;exitDy=0;" edge="1" parent="1" source="UoCwUCxMzMDlwAczhJUl-20" target="UoCwUCxMzMDlwAczhJUl-23">
          <mxGeometry width="50" height="50" relative="1" as="geometry">
            <mxPoint x="386" y="460" as="sourcePoint" />
            <mxPoint x="416" y="400" as="targetPoint" />
          </mxGeometry>
        </mxCell>
        <mxCell id="UoCwUCxMzMDlwAczhJUl-5" style="edgeStyle=orthogonalEdgeStyle;rounded=0;orthogonalLoop=1;jettySize=auto;html=1;exitX=0.75;exitY=0;exitDx=0;exitDy=0;entryX=0.688;entryY=-0.057;entryDx=0;entryDy=0;entryPerimeter=0;" edge="1" parent="1" source="UoCwUCxMzMDlwAczhJUl-26" target="UoCwUCxMzMDlwAczhJUl-26">
          <mxGeometry relative="1" as="geometry" />
        </mxCell>
        <mxCell id="UoCwUCxMzMDlwAczhJUl-6" value="" style="endArrow=classic;html=1;entryX=0.5;entryY=1;entryDx=0;entryDy=0;exitX=0.5;exitY=0;exitDx=0;exitDy=0;" edge="1" parent="1" source="UoCwUCxMzMDlwAczhJUl-26">
          <mxGeometry width="50" height="50" relative="1" as="geometry">
            <mxPoint x="386" y="603.99" as="sourcePoint" />
            <mxPoint x="386" y="533.99" as="targetPoint" />
          </mxGeometry>
        </mxCell>
        <mxCell id="UoCwUCxMzMDlwAczhJUl-7" value="*" style="text;html=1;strokeColor=none;fillColor=none;align=center;verticalAlign=middle;whiteSpace=wrap;rounded=0;fontStyle=1" vertex="1" parent="1">
          <mxGeometry x="376" y="587.98" width="40" height="20" as="geometry" />
        </mxCell>
        <mxCell id="UoCwUCxMzMDlwAczhJUl-8" value="*" style="text;html=1;strokeColor=none;fillColor=none;align=center;verticalAlign=middle;whiteSpace=wrap;rounded=0;fontStyle=1" vertex="1" parent="1">
          <mxGeometry x="376" y="443.99" width="40" height="20" as="geometry" />
        </mxCell>
        <mxCell id="UoCwUCxMzMDlwAczhJUl-9" value="*" style="text;html=1;strokeColor=none;fillColor=none;align=center;verticalAlign=middle;whiteSpace=wrap;rounded=0;fontStyle=1" vertex="1" parent="1">
          <mxGeometry x="276" y="320" width="40" height="20" as="geometry" />
        </mxCell>
        <mxCell id="UoCwUCxMzMDlwAczhJUl-10" value="1" style="text;html=1;strokeColor=none;fillColor=none;align=center;verticalAlign=middle;whiteSpace=wrap;rounded=0;fontStyle=1" vertex="1" parent="1">
          <mxGeometry x="376" y="540" width="40" height="20" as="geometry" />
        </mxCell>
        <mxCell id="UoCwUCxMzMDlwAczhJUl-11" value="1" style="text;html=1;strokeColor=none;fillColor=none;align=center;verticalAlign=middle;whiteSpace=wrap;rounded=0;fontStyle=1" vertex="1" parent="1">
          <mxGeometry x="376" y="400" width="40" height="20" as="geometry" />
        </mxCell>
        <mxCell id="UoCwUCxMzMDlwAczhJUl-12" value="1" style="text;html=1;strokeColor=none;fillColor=none;align=center;verticalAlign=middle;whiteSpace=wrap;rounded=0;fontStyle=1" vertex="1" parent="1">
          <mxGeometry x="216" y="313" width="40" height="20" as="geometry" />
        </mxCell>
        <mxCell id="UoCwUCxMzMDlwAczhJUl-13" value="" style="shape=partialRectangle;whiteSpace=wrap;html=1;bottom=1;right=1;left=1;top=0;fillColor=none;routingCenterX=-0.5;direction=north;" vertex="1" parent="1">
          <mxGeometry x="466" y="360" width="80" height="290" as="geometry" />
        </mxCell>
        <mxCell id="UoCwUCxMzMDlwAczhJUl-14" value="" style="line;strokeWidth=1;direction=west;html=1;" vertex="1" parent="1">
          <mxGeometry x="466" y="500" width="130" height="10" as="geometry" />
        </mxCell>
        <mxCell id="UoCwUCxMzMDlwAczhJUl-15" value="Book" style="swimlane;fontStyle=2;align=center;verticalAlign=top;childLayout=stackLayout;horizontal=1;startSize=26;horizontalStack=0;resizeParent=1;resizeLast=0;collapsible=1;marginBottom=0;rounded=0;shadow=0;strokeWidth=1;" vertex="1" parent="1">
          <mxGeometry x="66" y="320" width="160" height="120" as="geometry">
            <mxRectangle x="230" y="140" width="160" height="26" as="alternateBounds" />
          </mxGeometry>
        </mxCell>
        <mxCell id="UoCwUCxMzMDlwAczhJUl-16" value="publisher: String" style="text;align=left;verticalAlign=top;spacingLeft=4;spacingRight=4;overflow=hidden;rotatable=0;points=[[0,0.5],[1,0.5]];portConstraint=eastwest;" vertex="1" parent="UoCwUCxMzMDlwAczhJUl-15">
          <mxGeometry y="26" width="160" height="26" as="geometry" />
        </mxCell>
        <mxCell id="UoCwUCxMzMDlwAczhJUl-17" value="publicationDate: String" style="text;align=left;verticalAlign=top;spacingLeft=4;spacingRight=4;overflow=hidden;rotatable=0;points=[[0,0.5],[1,0.5]];portConstraint=eastwest;rounded=0;shadow=0;html=0;" vertex="1" parent="UoCwUCxMzMDlwAczhJUl-15">
          <mxGeometry y="52" width="160" height="26" as="geometry" />
        </mxCell>
        <mxCell id="UoCwUCxMzMDlwAczhJUl-18" value="ISBN: Integer" style="text;align=left;verticalAlign=top;spacingLeft=4;spacingRight=4;overflow=hidden;rotatable=0;points=[[0,0.5],[1,0.5]];portConstraint=eastwest;rounded=0;shadow=0;html=0;" vertex="1" parent="UoCwUCxMzMDlwAczhJUl-15">
          <mxGeometry y="78" width="160" height="26" as="geometry" />
        </mxCell>
        <mxCell id="UoCwUCxMzMDlwAczhJUl-19" value="" style="line;html=1;strokeWidth=1;align=left;verticalAlign=middle;spacingTop=-1;spacingLeft=3;spacingRight=3;rotatable=0;labelPosition=right;points=[];portConstraint=eastwest;" vertex="1" parent="UoCwUCxMzMDlwAczhJUl-15">
          <mxGeometry y="104" width="160" height="8" as="geometry" />
        </mxCell>
        <mxCell id="UoCwUCxMzMDlwAczhJUl-20" value="Chapter" style="swimlane;fontStyle=0;align=center;verticalAlign=top;childLayout=stackLayout;horizontal=1;startSize=26;horizontalStack=0;resizeParent=1;resizeLast=0;collapsible=1;marginBottom=0;rounded=0;shadow=0;strokeWidth=1;" vertex="1" parent="1">
          <mxGeometry x="306" y="463.99" width="160" height="70" as="geometry">
            <mxRectangle x="340" y="380" width="170" height="26" as="alternateBounds" />
          </mxGeometry>
        </mxCell>
        <mxCell id="UoCwUCxMzMDlwAczhJUl-21" value="abstract: String&#xa;" style="text;align=left;verticalAlign=top;spacingLeft=4;spacingRight=4;overflow=hidden;rotatable=0;points=[[0,0.5],[1,0.5]];portConstraint=eastwest;" vertex="1" parent="UoCwUCxMzMDlwAczhJUl-20">
          <mxGeometry y="26" width="160" height="26" as="geometry" />
        </mxCell>
        <mxCell id="UoCwUCxMzMDlwAczhJUl-22" value="" style="line;html=1;strokeWidth=1;align=left;verticalAlign=middle;spacingTop=-1;spacingLeft=3;spacingRight=3;rotatable=0;labelPosition=right;points=[];portConstraint=eastwest;" vertex="1" parent="UoCwUCxMzMDlwAczhJUl-20">
          <mxGeometry y="52" width="160" height="8" as="geometry" />
        </mxCell>
        <mxCell id="UoCwUCxMzMDlwAczhJUl-23" value="Part&#xa;" style="swimlane;fontStyle=0;align=center;verticalAlign=top;childLayout=stackLayout;horizontal=1;startSize=26;horizontalStack=0;resizeParent=1;resizeLast=0;collapsible=1;marginBottom=0;rounded=0;shadow=0;strokeWidth=1;" vertex="1" parent="1">
          <mxGeometry x="306" y="320" width="160" height="70" as="geometry">
            <mxRectangle x="340" y="380" width="170" height="26" as="alternateBounds" />
          </mxGeometry>
        </mxCell>
        <mxCell id="UoCwUCxMzMDlwAczhJUl-24" value="  " style="text;align=left;verticalAlign=top;spacingLeft=4;spacingRight=4;overflow=hidden;rotatable=0;points=[[0,0.5],[1,0.5]];portConstraint=eastwest;" vertex="1" parent="UoCwUCxMzMDlwAczhJUl-23">
          <mxGeometry y="26" width="160" height="26" as="geometry" />
        </mxCell>
        <mxCell id="UoCwUCxMzMDlwAczhJUl-25" value="" style="line;html=1;strokeWidth=1;align=left;verticalAlign=middle;spacingTop=-1;spacingLeft=3;spacingRight=3;rotatable=0;labelPosition=right;points=[];portConstraint=eastwest;" vertex="1" parent="UoCwUCxMzMDlwAczhJUl-23">
          <mxGeometry y="52" width="160" height="8" as="geometry" />
        </mxCell>
        <mxCell id="UoCwUCxMzMDlwAczhJUl-26" value="Section&#xa;" style="swimlane;fontStyle=0;align=center;verticalAlign=top;childLayout=stackLayout;horizontal=1;startSize=26;horizontalStack=0;resizeParent=1;resizeLast=0;collapsible=1;marginBottom=0;rounded=0;shadow=0;strokeWidth=1;" vertex="1" parent="1">
          <mxGeometry x="306" y="607.98" width="160" height="70" as="geometry">
            <mxRectangle x="340" y="380" width="170" height="26" as="alternateBounds" />
          </mxGeometry>
        </mxCell>
        <mxCell id="UoCwUCxMzMDlwAczhJUl-27" value="  " style="text;align=left;verticalAlign=top;spacingLeft=4;spacingRight=4;overflow=hidden;rotatable=0;points=[[0,0.5],[1,0.5]];portConstraint=eastwest;" vertex="1" parent="UoCwUCxMzMDlwAczhJUl-26">
          <mxGeometry y="26" width="160" height="26" as="geometry" />
        </mxCell>
        <mxCell id="UoCwUCxMzMDlwAczhJUl-28" value="" style="line;html=1;strokeWidth=1;align=left;verticalAlign=middle;spacingTop=-1;spacingLeft=3;spacingRight=3;rotatable=0;labelPosition=right;points=[];portConstraint=eastwest;" vertex="1" parent="UoCwUCxMzMDlwAczhJUl-26">
          <mxGeometry y="52" width="160" height="8" as="geometry" />
        </mxCell>
        <mxCell id="UoCwUCxMzMDlwAczhJUl-29" value="BookComponents" style="swimlane;fontStyle=2;align=center;verticalAlign=top;childLayout=stackLayout;horizontal=1;startSize=26;horizontalStack=0;resizeParent=1;resizeLast=0;collapsible=1;marginBottom=0;rounded=0;shadow=0;strokeWidth=1;" vertex="1" parent="1">
          <mxGeometry x="606" y="451.49" width="160" height="95" as="geometry">
            <mxRectangle x="230" y="140" width="160" height="26" as="alternateBounds" />
          </mxGeometry>
        </mxCell>
        <mxCell id="UoCwUCxMzMDlwAczhJUl-30" value="title: String" style="text;align=left;verticalAlign=top;spacingLeft=4;spacingRight=4;overflow=hidden;rotatable=0;points=[[0,0.5],[1,0.5]];portConstraint=eastwest;" vertex="1" parent="UoCwUCxMzMDlwAczhJUl-29">
          <mxGeometry y="26" width="160" height="26" as="geometry" />
        </mxCell>
        <mxCell id="UoCwUCxMzMDlwAczhJUl-31" value="number: Integer" style="text;align=left;verticalAlign=top;spacingLeft=4;spacingRight=4;overflow=hidden;rotatable=0;points=[[0,0.5],[1,0.5]];portConstraint=eastwest;rounded=0;shadow=0;html=0;" vertex="1" parent="UoCwUCxMzMDlwAczhJUl-29">
          <mxGeometry y="52" width="160" height="26" as="geometry" />
        </mxCell>
        <mxCell id="UoCwUCxMzMDlwAczhJUl-32" value="" style="line;html=1;strokeWidth=1;align=left;verticalAlign=middle;spacingTop=-1;spacingLeft=3;spacingRight=3;rotatable=0;labelPosition=right;points=[];portConstraint=eastwest;" vertex="1" parent="UoCwUCxMzMDlwAczhJUl-29">
          <mxGeometry y="78" width="160" height="8" as="geometry" />
        </mxCell>
        <mxCell id="UoCwUCxMzMDlwAczhJUl-33" value="" style="triangle;whiteSpace=wrap;html=1;strokeWidth=1;" vertex="1" parent="1">
          <mxGeometry x="596" y="497" width="10" height="16" as="geometry" />
        </mxCell>
      </root>
    </mxGraphModel>
  </diagram>
</mxfile>
